<?xml version="1.0" encoding="UTF-8" standalone="no"?>
<svg width="512" height="512" viewBox="0 0 512 512" fill="none" xmlns="http://www.w3.org/2000/svg">
  <rect width="512" height="512" rx="100" fill="#1E293B"/>
  <path d="M256 120C263.732 120 270 126.268 270 134V224H360C367.732 224 374 230.268 374 238C374 245.732 367.732 252 360 252H270V342C270 349.732 263.732 356 256 356C248.268 356 242 349.732 242 342V252H152C144.268 252 138 245.732 138 238C138 230.268 144.268 224 152 224H242V134C242 126.268 248.268 120 256 120Z" fill="#38BDF8"/>
  <path d="M138 302C138 294.268 144.268 288 152 288H360C367.732 288 374 294.268 374 302C374 309.732 367.732 316 360 316H152C144.268 316 138 309.732 138 302Z" fill="#38BDF8"/>
  <path d="M138 366C138 358.268 144.268 352 152 352H360C367.732 352 374 358.268 374 366C374 373.732 367.732 380 360 380H152C144.268 380 138 373.732 138 366Z" fill="#38BDF8"/>
  <circle cx="256" cy="134" r="20" fill="#38BDF8"/>
  <circle cx="256" cy="366" r="20" fill="#38BDF8"/>
</svg>