<?xml version="1.0" encoding="utf-8"?>
<svg width="256px" height="240px" viewBox="0 0 256 240" version="1.1" xmlns="http://www.w3.org/2000/svg" preserveAspectRatio="xMidYMid">
  <title>MetaMask Fox</title>
  <defs>
    <radialGradient id="radialGradient-1" cx="0.5" cy="0.5" r="0.5" fx="0.5" fy="0.5">
      <stop stop-color="#FFFFFF" offset="0%"></stop>
      <stop stop-color="#F2F2F2" offset="100%"></stop>
    </radialGradient>
    <radialGradient id="radialGradient-2" cx="0.5" cy="0.5" r="0.5" fx="0.5" fy="0.5">
      <stop stop-color="#EEEEEE" offset="0%"></stop>
      <stop stop-color="#D8D8D8" offset="100%"></stop>
    </radialGradient>
  </defs>
  <g>
    <path d="M250.066,0 L148.954,75.0977 L167.924,34.0437 L250.066,0 Z" fill="#E17726"></path>
    <path d="M5.93171,0 L87.7593,34.0437 L106.729,75.0977 L5.93171,0 Z" fill="#E27625"></path>
    <path d="M212.506,171.854 L185.838,211.354 L242.146,226.333 L258.311,172.667 L212.506,171.854 Z" fill="#E27625"></path>
    <path d="M-2.23307,172.667 L13.8507,226.333 L70.1587,211.354 L43.6707,171.854 L-2.23307,172.667 Z" fill="#E27625"></path>
    <path d="M67.4211,105.153 L51.6211,128.219 L107.148,130.578 L105.462,70.4156 L67.4211,105.153 Z" fill="#E27625"></path>
    <path d="M188.579,105.153 L150.215,70.0113 L148.954,130.578 L204.481,128.219 L188.579,105.153 Z" fill="#E27625"></path>
    <path d="M70.1587,211.354 L103.619,195.313 L75.3208,173.106 L70.1587,211.354 Z" fill="#E27625"></path>
    <path d="M152.381,195.313 L185.841,211.354 L180.679,173.106 L152.381,195.313 Z" fill="#E27625"></path>
    <path d="M185.841,211.354 L152.381,195.312 L155.197,216.71 L154.802,225.627 L185.841,211.354 Z" fill="#D5BFB2"></path>
    <path d="M70.1587,211.354 L101.198,225.627 L100.924,216.71 L103.619,195.312 L70.1587,211.354 Z" fill="#D5BFB2"></path>
    <path d="M101.979,158.233 L74.6863,150.294 L93.3717,141.377 L101.979,158.233 Z" fill="#233447"></path>
    <path d="M154.021,158.233 L162.628,141.377 L181.435,150.294 L154.021,158.233 Z" fill="#233447"></path>
    <path d="M70.1587,211.354 L75.5977,171.854 L43.6707,172.667 L70.1587,211.354 Z" fill="#CC6228"></path>
    <path d="M180.402,171.854 L185.841,211.354 L212.329,172.667 L180.402,171.854 Z" fill="#CC6228"></path>
    <path d="M204.482,128.219 L148.954,130.578 L154.022,158.233 L162.628,141.377 L181.435,150.294 L204.482,128.219 Z" fill="#CC6228"></path>
    <path d="M74.6865,150.294 L93.3719,141.377 L101.979,158.233 L106.926,130.578 L51.6211,128.219 L74.6865,150.294 Z" fill="#CC6228"></path>
    <path d="M51.6211,128.219 L75.321,173.106 L74.6865,150.294 L51.6211,128.219 Z" fill="#E27525"></path>
    <path d="M181.435,150.294 L180.679,173.106 L204.481,128.219 L181.435,150.294 Z" fill="#E27525"></path>
    <path d="M106.729,130.578 L101.979,158.233 L108.188,191.627 L109.866,148.363 L106.729,130.578 Z" fill="#E27525"></path>
    <path d="M148.954,130.578 L145.938,148.239 L147.494,191.627 L153.824,158.233 L148.954,130.578 Z" fill="#E27525"></path>
    <path d="M153.823,158.233 L147.493,191.627 L152.381,195.313 L180.679,173.106 L181.435,150.294 L153.823,158.233 Z" fill="#F5841F"></path>
    <path d="M74.6863,150.294 L75.3208,173.106 L103.619,195.313 L108.507,191.627 L101.979,158.233 L74.6863,150.294 Z" fill="#F5841F"></path>
    <path d="M154.802,225.628 L155.197,216.71 L152.666,214.61 L103.337,214.61 L100.924,216.71 L101.198,225.628 L70.1587,211.354 L79.9937,219.421 L102.924,234.517 L153.05,234.517 L176.101,219.421 L185.841,211.354 L154.802,225.628 Z" fill="#C0AC9D"></path>
    <path d="M152.381,195.312 L147.493,191.626 L108.507,191.626 L103.619,195.312 L100.924,216.71 L103.337,214.609 L152.666,214.609 L155.197,216.71 L152.381,195.312 Z" fill="#161616"></path>
    <path d="M253.401,82.1596 L262,42.6592 L250.066,0 L152.381,74.9375 L188.58,105.153 L240.526,119.866 L252.044,106.958 L246.957,103.322 L254.909,96.0508 L248.681,91.0534 L256.634,85.0314 L253.401,82.1596 Z" fill="#763E1A"></path>
    <path d="M-6,42.6592 L2.59857,82.1596 L-0.754286,85.0314 L7.31971,91.0534 L0.970286,96.0508 L8.92171,103.322 L3.83457,106.958 L15.3526,119.866 L67.4211,105.153 L103.619,74.9375 L5.93171,0 L-6,42.6592 Z" fill="#763E1A"></path>
    <path d="M240.526,119.866 L188.58,105.153 L204.482,128.219 L180.679,173.106 L212.506,172.667 L258.311,172.667 L240.526,119.866 Z" fill="#F5841F"></path>
    <path d="M67.4211,105.153 L15.3526,119.866 L-2.23307,172.667 L43.6707,172.667 L75.321,173.106 L51.6211,128.219 L67.4211,105.153 Z" fill="#F5841F"></path>
    <path d="M148.954,130.578 L152.381,74.9375 L167.924,34.0436 L87.7593,34.0436 L103.619,74.9375 L106.729,130.578 L108.388,148.488 L108.507,191.627 L147.493,191.627 L147.612,148.488 L148.954,130.578 Z" fill="#F5841F"></path>
  </g>
</svg>