<?xml version="1.0" encoding="UTF-8" standalone="no"?>
<svg width="1024" height="500" viewBox="0 0 1024 500" fill="none" xmlns="http://www.w3.org/2000/svg">
  <!-- Background -->
  <rect width="1024" height="500" fill="#DFE9F0"/>
  
  <!-- Decorative dots/circles pattern -->
  <g opacity="0.1">
    <circle cx="100" cy="100" r="8" fill="#19466B"/>
    <circle cx="140" cy="100" r="6" fill="#19466B"/>
    <circle cx="180" cy="100" r="4" fill="#19466B"/>
    <circle cx="100" cy="140" r="6" fill="#19466B"/>
    <circle cx="140" cy="140" r="4" fill="#19466B"/>
    <circle cx="180" cy="140" r="8" fill="#19466B"/>
    <circle cx="100" cy="180" r="4" fill="#19466B"/>
    <circle cx="140" cy="180" r="8" fill="#19466B"/>
    <circle cx="180" cy="180" r="6" fill="#19466B"/>
    
    <circle cx="844" cy="320" r="8" fill="#19466B"/>
    <circle cx="884" cy="320" r="6" fill="#19466B"/>
    <circle cx="924" cy="320" r="4" fill="#19466B"/>
    <circle cx="844" cy="360" r="6" fill="#19466B"/>
    <circle cx="884" cy="360" r="4" fill="#19466B"/>
    <circle cx="924" cy="360" r="8" fill="#19466B"/>
    <circle cx="844" cy="400" r="4" fill="#19466B"/>
    <circle cx="884" cy="400" r="8" fill="#19466B"/>
    <circle cx="924" cy="400" r="6" fill="#19466B"/>
  </g>
  
  <!-- App Icon -->
  <g transform="translate(190, 150) scale(0.8)">
    <!-- Circle outline -->
    <circle cx="160" cy="100" r="95" stroke="#19466B" stroke-width="12" fill="none"/>
    
    <!-- Checkmark -->
    <path d="M110 100L145 135L215 65" stroke="#19466B" stroke-width="15" stroke-linecap="round" stroke-linejoin="round" fill="none"/>
    
    <!-- Connected nodes - left side -->
    <circle cx="110" cy="100" r="6" fill="#19466B"/>
    <circle cx="125" cy="115" r="6" fill="#19466B"/>
    <circle cx="145" cy="135" r="6" fill="#19466B"/>
    
    <!-- Square node at top-left of checkmark -->
    <rect x="105" y="75" width="11" height="11" rx="2" fill="#19466B"/>
    
    <!-- Connected path - left side -->
    <path d="M105 81L110 100L125 115L145 135" stroke="#19466B" stroke-width="6" fill="none"/>
    
    <!-- Connected path - bottom right -->
    <path d="M145 135L175 105L200 80" stroke="#19466B" stroke-width="6" fill="none"/>
    
    <!-- Additional node -->
    <circle cx="200" cy="80" r="6" fill="#19466B"/>
  </g>
  
  <!-- TSK Platform Text -->
  <text x="440" y="150" font-family="Arial, sans-serif" font-size="54" font-weight="bold" fill="#19466B" text-anchor="start">TSK Platform</text>
  
  <!-- Text -->
  <text x="512" y="300" font-family="Arial, sans-serif" font-size="36" font-weight="bold" fill="#19466B" text-anchor="middle">The Future of Decentralized Economy</text>
  <text x="512" y="360" font-family="Arial, sans-serif" font-size="24" fill="#19466B" text-anchor="middle">Mine • Learn • Earn • Connect</text>
  
  <!-- Decorative blockchain-like elements -->
  <g transform="translate(680, 150)">
    <rect x="0" y="0" width="15" height="15" rx="2" fill="#19466B" opacity="0.7"/>
    <rect x="40" y="0" width="15" height="15" rx="2" fill="#19466B" opacity="0.7"/>
    <rect x="80" y="0" width="15" height="15" rx="2" fill="#19466B" opacity="0.7"/>
    <rect x="20" y="40" width="15" height="15" rx="2" fill="#19466B" opacity="0.7"/>
    <rect x="60" y="40" width="15" height="15" rx="2" fill="#19466B" opacity="0.7"/>
    <path d="M7 7 L47 7" stroke="#19466B" stroke-width="2" opacity="0.7"/>
    <path d="M47 7 L87 7" stroke="#19466B" stroke-width="2" opacity="0.7"/>
    <path d="M7 7 L27 47" stroke="#19466B" stroke-width="2" opacity="0.7"/>
    <path d="M47 7 L27 47" stroke="#19466B" stroke-width="2" opacity="0.7"/>
    <path d="M87 7 L67 47" stroke="#19466B" stroke-width="2" opacity="0.7"/>
    <path d="M27 47 L67 47" stroke="#19466B" stroke-width="2" opacity="0.7"/>
  </g>
</svg>