<?xml version="1.0" encoding="UTF-8" standalone="no"?>
<svg width="512" height="512" viewBox="0 0 512 512" fill="none" xmlns="http://www.w3.org/2000/svg">
  <!-- Background -->
  <rect width="512" height="512" rx="100" fill="#19466B"/>
  
  <!-- TSK Logo -->
  <g transform="translate(56, 56) scale(0.78)">
    <!-- T -->
    <rect x="60" y="80" width="120" height="30" fill="white"/>
    <rect x="105" y="80" width="30" height="200" fill="white"/>
    
    <!-- S -->
    <path d="M220 110 L320 110 L320 80 L220 80 L220 110 Z" fill="white"/>
    <path d="M220 110 L220 160 L250 160 L250 110 L220 110 Z" fill="white"/>
    <path d="M220 160 L320 160 L320 190 L220 190 L220 160 Z" fill="white"/>
    <path d="M290 190 L320 190 L320 240 L290 240 L290 190 Z" fill="white"/>
    <path d="M220 240 L320 240 L320 270 L220 270 L220 240 Z" fill="white"/>
    
    <!-- K -->
    <rect x="350" y="80" width="30" height="200" fill="white"/>
    <path d="M380 180 L430 80 L465 80 L400 180 L475 280 L435 280 L380 180 Z" fill="white"/>
    <path d="M350 180 L380 180 L435 280 L405 280 L350 180 Z" fill="white"/>
  </g>
  
  <!-- Decorative elements -->
  <circle cx="120" cy="400" r="15" fill="#4A90E2" opacity="0.7"/>
  <circle cx="400" cy="120" r="15" fill="#4A90E2" opacity="0.7"/>
  <circle cx="400" cy="400" r="8" fill="#4A90E2" opacity="0.9"/>
  <circle cx="120" cy="120" r="8" fill="#4A90E2" opacity="0.9"/>
</svg>